<svg width="21" height="30" viewBox="0 0 21 30" fill="none" xmlns="http://www.w3.org/2000/svg">
<path d="M19.7683 18.3734C18.8065 17.7158 17.7492 17.2052 16.8931 16.4046C16.7915 16.3065 16.6959 16.2044 16.6024 16.0982C16.4173 15.8838 16.2526 15.6509 16.1123 15.3936C15.9517 15.1077 15.7727 14.8422 15.5775 14.593C14.992 13.8496 14.2478 13.2797 13.3429 12.8896C12.9708 12.763 12.615 12.5649 12.192 12.6343C13.5097 12.3341 14.6504 11.7296 15.3864 10.5573C15.604 10.2121 15.6853 10.1651 16.0574 10.3551C16.5495 10.6063 16.9806 10.306 17.3242 9.93229C17.5885 9.64636 17.7024 9.27669 17.8122 8.9111C17.9403 8.31269 17.7878 7.80618 17.3222 7.39975C17.2144 7.3058 16.8423 5.03263 16.9013 4.91826C16.9257 4.87129 16.9684 4.84474 17.0151 4.82023C17.5865 4.50979 17.4137 4.04413 17.2001 3.63974C16.639 2.57362 15.7402 1.90985 14.5995 1.57081C13.7882 1.32981 12.8976 1.32777 12.2144 0.70893C12.0904 0.596599 11.8891 0.574133 11.7122 0.555752C10.4332 0.427082 9.17255 0.492438 8.03388 1.16234C7.48895 1.48503 7.03958 1.60757 6.43162 1.2665C5.84398 0.935633 5.49222 1.20523 5.51052 1.84653C5.51458 1.99154 5.52272 2.08753 5.38242 2.15085C5.11402 2.27135 5.01642 2.46741 5.07742 2.7656C5.14248 3.08829 4.91272 3.28641 4.71142 3.47635C3.79845 4.3321 3.43042 5.40639 3.45278 6.63181C3.45888 6.92796 3.43652 7.1853 3.18032 7.37728C2.54795 7.84703 2.50322 8.46178 2.75942 9.14802C2.89158 9.4217 3.00952 9.70354 3.19862 9.94046C3.51582 10.3448 3.93265 10.6267 4.43895 10.4245C4.86798 10.2529 5.05708 10.4041 5.30312 10.7206C6.08595 11.7275 7.10668 12.3627 8.34092 12.5792C7.95255 12.6875 7.50725 12.7385 7.12295 12.9754C6.18558 13.5391 5.29905 14.1661 4.77242 15.1628C4.64025 15.412 4.49588 15.6428 4.33728 15.8552C4.17868 16.0676 4.00992 16.2616 3.83505 16.4413C2.94852 17.3706 1.68785 17.7791 0.732182 18.5756C0.284848 18.9637 0.0205149 19.8419 0.345848 20.5159C0.508515 20.8222 0.833848 20.9652 1.16325 20.9979C1.42148 20.9999 1.69192 20.8998 1.96032 20.7507C2.49712 20.4526 3.03392 19.9583 3.48532 19.6867C3.68052 19.5437 3.87368 19.4007 4.06482 19.2537C4.44708 18.9596 4.82122 18.6532 5.18722 18.3244C5.44138 18.1038 5.68742 17.8771 5.92938 17.6463C6.17135 17.4155 6.40315 17.1786 6.63292 16.9417C6.46822 17.728 6.60852 18.5409 6.53328 19.3395C6.58005 21.7066 6.48245 24.0676 6.20592 26.4204C6.05952 27.6621 6.07172 27.6642 4.87205 27.366C4.13192 27.1822 3.84522 27.4742 4.01602 28.232C4.58942 28.8998 5.39868 29.1224 6.18152 29.3859C7.92002 29.9721 8.34498 29.7699 9.06682 28.0563C9.47552 27.1801 9.75002 26.2529 10.0652 25.342C10.1872 24.9642 10.3031 24.5843 10.3824 24.2963C10.4678 25.1786 10.9151 26.0425 11.155 26.9636C11.1795 27.0372 11.2079 27.1087 11.2445 27.1781C11.5048 27.8092 11.765 28.4403 12.1168 29.0285C12.3201 29.3675 12.5784 29.6575 13.0094 29.6289C14.447 29.535 15.7707 29.1449 16.8016 28.0563C16.9663 27.4844 16.6532 27.3108 16.1693 27.3149C15.8378 27.319 15.5288 27.4538 15.2238 27.5723C14.7602 27.754 14.5955 27.5825 14.5487 27.1087C14.3332 24.9131 14.0729 22.7237 14.0953 20.5118C14.0709 19.3844 14.0749 18.2611 14.0871 16.956C14.5955 17.4421 14.9066 17.8383 15.2827 18.1671C15.4596 18.3224 15.6467 18.4633 15.8399 18.6001C16.7325 19.1311 17.4035 19.8868 18.2778 20.52C18.9692 21.0305 20.0265 21.439 20.6772 20.8059C20.7849 20.7038 20.8581 20.5914 20.9049 20.473C20.9517 20.3545 20.9679 20.2299 20.9639 20.1013C20.9008 19.4375 20.5308 19.1577 20.1383 18.643C20.0204 18.5634 19.8882 18.4184 19.7683 18.3734ZM12.7878 17.4155C12.3974 18.3734 11.7711 19.1802 11.0229 19.8909C10.7951 20.1074 10.5389 20.2851 10.2462 20.0339C9.04852 19.0086 8.12945 17.7954 7.79192 16.331C7.75735 15.3997 8.31652 14.9688 9.07495 15.2629C9.40435 15.3895 9.72968 15.5897 9.98385 15.8327C10.3194 16.1534 10.5491 16.1146 10.907 15.849C11.4092 15.4753 11.9684 14.8462 12.6353 15.3956C13.3002 15.943 13.0644 16.7375 12.7878 17.4155Z" fill="#3EC4FF"/>
</svg>
