<svg width="111" height="64" viewBox="0 0 111 64" fill="none" xmlns="http://www.w3.org/2000/svg">
<g clip-path="url(#clip0)">
<path d="M17.9936 34.0815C19.7059 35.7031 21.3881 37.2045 21.7186 39.6067C21.8688 40.6577 21.5383 42.099 20.9375 42.8798C19.6458 42.3092 18.6845 41.4084 18.1438 40.0571C17.573 38.5858 17.603 37.0844 17.7532 35.5529C17.8434 35.1025 17.9335 34.6521 17.9936 34.0815Z" fill="#767676"/>
<path d="M13.278 39.3666C11.9862 40.0873 10.6645 40.2674 9.28259 39.8771C7.29991 39.2765 5.91805 37.8952 4.41602 36.3638C5.34727 36.2437 6.15837 36.1235 6.96947 36.0635C8.11101 35.9734 9.28259 36.0335 10.3641 36.4539C11.806 36.9643 12.7072 37.9853 13.278 39.3666Z" fill="#767676"/>
<path d="M1.11133 30.478C3.06397 30.5381 4.89644 30.5681 6.57872 31.4389C8.05071 32.1896 8.8618 33.4508 9.22229 35.0723C8.44123 35.3726 7.66018 35.4327 6.84908 35.3426C6.06803 35.2525 5.34705 34.9522 4.68616 34.5318C3.15409 33.5409 2.13271 32.0695 1.11133 30.478Z" fill="#767676"/>
<path d="M14.8995 30.418C15.8608 32.2197 16.7921 33.9313 16.7921 35.9431C16.7621 37.4746 16.0711 38.6757 14.9596 39.7267C14.2086 39.0661 13.6679 38.2553 13.3975 37.2944C13.1572 36.4837 13.1272 35.6429 13.2774 34.8021C13.4876 33.2406 14.1485 31.8593 14.8995 30.418Z" fill="#767676"/>
<path d="M10.4548 35.6127C9.61366 34.4716 9.22313 33.2405 9.37333 31.8291C9.46346 30.8983 9.7939 30.0575 10.2445 29.2767C10.8153 28.3158 11.4461 27.415 12.077 26.5142C12.5576 27.7453 12.9181 28.9464 13.0383 30.2076C13.1284 31.1085 13.0984 32.0093 12.7679 32.8501C12.3474 34.0813 11.5363 34.9521 10.4548 35.6127Z" fill="#767676"/>
<path d="M21.1777 48.9154C22.83 47.474 24.3921 46.0927 26.6151 45.7924C27.7867 45.6423 29.4089 46.0927 30.22 46.8434C29.5591 48.0145 28.6278 48.8553 27.306 49.2757C25.2633 49.9063 23.2806 49.4258 21.1777 48.9154Z" fill="#767676"/>
<path d="M7.45046 2.4917C8.50188 4.59367 9.61338 6.60555 9.07265 9.0078C8.83233 10.1188 8.17143 11.0197 7.27022 11.7704C6.369 10.8695 5.7081 9.84859 5.64802 8.58741C5.58794 7.86673 5.64802 7.14606 5.79823 6.45541C6.06859 5.04409 6.72948 3.81294 7.45046 2.4917Z" fill="#767676"/>
<path d="M24.0323 44.8917C23.0409 46.3331 21.6891 47.1138 19.9768 47.2339C18.2044 47.354 16.5522 46.8135 14.8398 46.2129C15.0802 46.0328 15.2604 45.8826 15.4407 45.7625C16.462 45.162 17.4233 44.4713 18.5048 44.0209C20.4875 43.1501 22.35 43.4804 24.0323 44.8917Z" fill="#767676"/>
<path d="M8.14008 14.1428C8.11003 12.6114 8.56064 11.2901 9.6421 10.2091C11.054 8.82783 12.8564 8.19724 14.779 7.59668C14.6589 7.95702 14.5988 8.2573 14.4786 8.52755C14.028 9.54851 13.6675 10.6295 13.1268 11.5904C12.1054 13.332 10.5133 14.1728 8.50056 14.1428C8.3804 14.1728 8.26024 14.1428 8.14008 14.1428Z" fill="#767676"/>
<path d="M5.70763 25.2231C4.17556 24.9228 2.97394 24.1421 2.19288 22.8208C1.38178 21.4696 1.11142 19.9982 0.961216 18.4668C0.931175 18.1064 0.901134 17.7461 0.871094 17.2656C2.76365 18.4067 4.62617 19.4577 5.58747 21.5296C6.1282 22.7307 6.06812 23.9619 5.70763 25.2231Z" fill="#767676"/>
<path d="M9.10156 41.5585C9.73242 41.3483 10.3032 41.1381 10.8439 40.958C12.0455 40.5676 13.2472 40.2974 14.5089 40.4175C16.1911 40.5676 17.3928 41.4384 18.3541 42.8197C17.2726 43.7205 16.0409 44.171 14.629 44.0809C13.097 43.9608 11.7752 43.3002 10.5135 42.5194C10.0629 42.2191 9.64229 41.9189 9.10156 41.5585Z" fill="#767676"/>
<path d="M8.14183 29.0368C7.18053 27.4153 7.12045 25.7937 7.84143 24.1422C8.4122 22.851 9.28337 21.8 10.2447 20.8091C10.4249 20.6289 10.6352 20.4487 10.8154 20.2686C10.8455 20.2986 10.8755 20.2986 10.8755 20.2986C11.236 21.9501 11.5364 23.6017 11.206 25.2833C10.8455 27.0549 9.79406 28.256 8.14183 29.0368Z" fill="#767676"/>
<path d="M7.45007 30.208C5.82788 30.5083 4.38593 30.208 3.12422 29.1571C1.68227 27.986 0.841137 26.3945 0 24.6528C0.600812 24.7429 1.08146 24.833 1.59215 24.9231C2.76373 25.1333 3.90528 25.4336 4.9567 26.0341C6.45873 26.9049 7.23978 28.2562 7.48011 29.9678C7.48011 30.0579 7.48011 30.118 7.45007 30.208Z" fill="#767676"/>
<path d="M22.3203 38.7358C23.8223 39.0361 25.2042 39.3664 26.4659 40.027C28.1782 40.8979 29.1696 42.2792 29.3798 44.201C29.3798 44.3211 29.4099 44.4412 29.4099 44.5613C29.4099 44.6213 29.4099 44.6514 29.3798 44.7415C27.9079 44.9216 26.5861 44.5913 25.4445 43.6604C24.3931 42.8197 23.7022 41.6786 23.1014 40.5075C22.831 39.967 22.5907 39.3965 22.3203 38.7358Z" fill="#767676"/>
<path d="M11.2055 14.1128C11.0853 15.1938 11.0553 16.2448 10.875 17.2657C10.7849 17.8963 10.5746 18.557 10.3343 19.1275C9.61334 20.779 8.29155 21.6799 6.51916 22.1003C6.27883 21.4997 6.21875 20.8991 6.21875 20.2686C6.21875 18.9173 6.78952 17.7762 7.6607 16.7853C8.59196 15.7043 9.76354 14.8935 10.9652 14.1428C11.0252 14.1428 11.0853 14.1428 11.2055 14.1128Z" fill="#767676"/>
<path d="M3.69454 9.57861C3.93486 9.87889 4.14515 10.1191 4.32539 10.3593C5.07641 11.3503 5.79738 12.3712 6.24799 13.5423C6.96896 15.4041 6.63852 17.1157 5.43689 18.7372C4.11511 17.9264 3.27397 16.8154 3.00361 15.314C2.73324 13.9027 2.94352 12.4913 3.30401 11.11C3.39413 10.5996 3.54434 10.1191 3.69454 9.57861Z" fill="#767676"/>
<path d="M10.004 8.10714C9.7937 6.75588 10.004 5.49469 10.8151 4.38365C11.2356 3.81312 11.7463 3.30264 12.2871 2.85222C13.3385 2.01143 14.5401 1.4409 15.8619 0.900391C15.8018 1.26073 15.7417 1.56101 15.6817 1.86129C15.4413 3.12247 15.1109 4.3236 14.45 5.46467C13.5187 7.11621 12.0768 7.957 10.2143 8.10714C10.1542 8.10714 10.0941 8.10714 10.004 8.10714Z" fill="#767676"/>
<path d="M32.3828 47.204C31.6919 47.204 31.1211 46.6635 31.1211 45.9729C31.1211 45.2822 31.6618 44.7417 32.3528 44.7417C33.0437 44.7417 33.6145 45.2822 33.6145 45.9729C33.5844 46.6335 33.0737 47.174 32.3828 47.204Z" fill="#767676"/>
<path d="M92.9759 34.0815C91.2636 35.7031 89.5813 37.2045 89.2509 39.6067C89.1007 40.6577 89.4311 42.099 90.032 42.8798C91.3237 42.3092 92.285 41.4084 92.8257 40.0571C93.3965 38.5858 93.3665 37.0844 93.2163 35.5529C93.1261 35.1025 93.0661 34.6521 92.9759 34.0815Z" fill="#767676"/>
<path d="M97.6914 39.3666C98.9832 40.0873 100.305 40.2674 101.687 39.8771C103.669 39.2765 105.051 37.8952 106.553 36.3638C105.622 36.2437 104.811 36.1235 104 36.0635C102.858 35.9734 101.687 36.0335 100.605 36.4539C99.1934 36.9643 98.2922 37.9853 97.6914 39.3666Z" fill="#767676"/>
<path d="M109.888 30.478C107.936 30.5381 106.103 30.5681 104.421 31.4389C102.949 32.1896 102.138 33.4508 101.777 35.0723C102.558 35.3726 103.339 35.4327 104.151 35.3426C104.932 35.2525 105.653 34.9522 106.313 34.5318C107.846 33.5409 108.837 32.0695 109.888 30.478Z" fill="#767676"/>
<path d="M96.0703 30.418C95.109 32.2197 94.1777 33.9313 94.1777 35.9431C94.2078 37.4746 94.8987 38.6757 96.0102 39.7267C96.7612 39.0661 97.3019 38.2553 97.5723 37.2944C97.8126 36.4837 97.8427 35.6429 97.6925 34.8021C97.4822 33.2406 96.8213 31.8593 96.0703 30.418Z" fill="#767676"/>
<path d="M100.545 35.6127C101.386 34.4716 101.777 33.2405 101.627 31.8291C101.537 30.8983 101.206 30.0575 100.756 29.2767C100.185 28.3158 99.5539 27.415 98.9231 26.5142C98.4424 27.7453 98.0819 28.9464 97.9618 30.2076C97.8717 31.1085 97.9017 32.0093 98.2321 32.8501C98.6227 34.0813 99.4338 34.9521 100.545 35.6127Z" fill="#767676"/>
<path d="M89.7922 48.9154C88.14 47.474 86.5779 46.0927 84.3549 45.7924C83.1833 45.6423 81.5611 46.0927 80.75 46.8434C81.4109 48.0145 82.3422 48.8553 83.6639 49.2757C85.7067 49.9063 87.7194 49.4258 89.7922 48.9154Z" fill="#767676"/>
<path d="M103.519 2.4917C102.468 4.59367 101.357 6.60555 101.897 9.0078C102.138 10.1188 102.798 11.0197 103.7 11.7704C104.601 10.8695 105.262 9.84859 105.322 8.58741C105.382 7.86673 105.322 7.14606 105.172 6.45541C104.901 5.04409 104.24 3.81294 103.519 2.4917Z" fill="#767676"/>
<path d="M86.9375 44.8917C87.9288 46.3331 89.2807 47.1138 90.993 47.2339C92.7654 47.354 94.4176 46.8135 96.1299 46.2129C95.8896 46.0328 95.7093 45.8826 95.5291 45.7625C94.5077 45.162 93.5464 44.4713 92.465 44.0209C90.5123 43.1501 88.6498 43.4804 86.9375 44.8917Z" fill="#767676"/>
<path d="M102.86 14.1428C102.89 12.6114 102.439 11.2901 101.358 10.2091C99.9457 8.82783 98.1433 8.19724 96.2207 7.59668C96.3409 7.95702 96.4009 8.2573 96.5211 8.52755C96.9717 9.54851 97.3322 10.6295 97.8729 11.5904C98.8943 13.332 100.486 14.1728 102.499 14.1428C102.619 14.1728 102.709 14.1428 102.86 14.1428Z" fill="#767676"/>
<path d="M105.263 25.2231C106.795 24.9228 107.996 24.1421 108.777 22.8208C109.588 21.4696 109.859 19.9982 110.009 18.4668C110.039 18.1064 110.069 17.7461 110.099 17.2656C108.207 18.4067 106.344 19.4577 105.383 21.5296C104.842 22.7307 104.902 23.9619 105.263 25.2231Z" fill="#767676"/>
<path d="M101.868 41.5585C101.237 41.3483 100.666 41.1381 100.125 40.958C98.9238 40.5676 97.7221 40.2974 96.4604 40.4175C94.7782 40.5676 93.5765 41.4384 92.6152 42.8197C93.6967 43.7205 94.9284 44.171 96.3403 44.0809C97.8723 43.9608 99.1941 43.3002 100.456 42.5194C100.906 42.2191 101.357 41.9189 101.868 41.5585Z" fill="#767676"/>
<path d="M102.859 29.0368C103.82 27.4153 103.88 25.7937 103.159 24.1422C102.589 22.851 101.717 21.8 100.756 20.8091C100.576 20.6289 100.366 20.4487 100.185 20.2686C100.155 20.2986 100.125 20.2986 100.125 20.2986C99.7648 21.9501 99.4644 23.6017 99.7948 25.2833C100.125 27.0549 101.207 28.256 102.859 29.0368Z" fill="#767676"/>
<path d="M103.52 30.208C105.142 30.5083 106.584 30.208 107.846 29.1571C109.288 27.986 110.129 26.3945 110.97 24.6528C110.37 24.7429 109.889 24.833 109.378 24.9231C108.207 25.1333 107.065 25.4336 106.014 26.0341C104.512 26.9049 103.731 28.2562 103.49 29.9678C103.49 30.0579 103.52 30.118 103.52 30.208Z" fill="#767676"/>
<path d="M88.6794 38.7358C87.1774 39.0361 85.7955 39.3664 84.5338 40.027C82.8215 40.8979 81.8302 42.2792 81.6199 44.201C81.6199 44.3211 81.5898 44.4412 81.5898 44.5613C81.5898 44.6213 81.5898 44.6514 81.6199 44.7415C83.0919 44.9216 84.4137 44.5913 85.5552 43.6604C86.6066 42.8197 87.2976 41.6786 87.8984 40.5075C88.1687 39.967 88.379 39.3965 88.6794 38.7358Z" fill="#767676"/>
<path d="M99.7656 14.1128C99.8858 15.1938 99.9158 16.2448 100.096 17.2657C100.186 17.8963 100.396 18.557 100.637 19.1275C101.358 20.779 102.68 21.6799 104.452 22.1003C104.692 21.4997 104.752 20.8991 104.752 20.2686C104.752 18.9173 104.182 17.7762 103.31 16.7853C102.379 15.7043 101.208 14.8935 100.006 14.1428C99.9459 14.1428 99.9158 14.1428 99.7656 14.1128Z" fill="#767676"/>
<path d="M107.305 9.57861C107.065 9.87889 106.854 10.1191 106.674 10.3593C105.923 11.3503 105.202 12.3712 104.751 13.5423C104.03 15.4041 104.361 17.1157 105.563 18.7372C106.884 17.9264 107.725 16.8154 107.996 15.314C108.266 13.9027 108.056 12.4913 107.695 11.11C107.605 10.5996 107.455 10.1191 107.305 9.57861Z" fill="#767676"/>
<path d="M100.997 8.10714C101.207 6.75588 100.997 5.49469 100.185 4.38365C99.7649 3.81312 99.2542 3.30264 98.7135 2.85222C97.6621 2.01143 96.4605 1.4409 95.1387 0.900391C95.1988 1.26073 95.2588 1.56101 95.3189 1.86129C95.5592 3.12247 95.8897 4.3236 96.5506 5.46467C97.4818 7.11621 98.9238 7.957 100.786 8.10714C100.816 8.10714 100.906 8.10714 100.997 8.10714Z" fill="#767676"/>
<path d="M78.6164 47.204C79.3074 47.204 79.8781 46.6635 79.8781 45.9729C79.8781 45.2822 79.3374 44.7417 78.6465 44.7417C77.9555 44.7417 77.3848 45.2822 77.3848 45.9729C77.3848 46.6335 77.9255 47.174 78.6164 47.204Z" fill="#767676"/>
<path d="M36.0195 45.9727C36.0195 45.9727 45.272 47.6843 56.6574 47.6843C68.0428 47.6843 76.334 45.9727 76.334 45.9727C76.334 45.9727 69.0041 49.576 56.6574 49.576C44.3107 49.576 36.0195 45.9727 36.0195 45.9727Z" fill="#767676"/>
<path d="M24.1537 15.1332C25.833 15.1332 26.6727 15.7785 26.6727 17.0692C26.6727 18.0372 26.1667 18.6422 25.1547 18.8842C25.404 19.0455 25.6314 19.3609 25.8367 19.8302L26.7057 21.7662C26.9257 21.9129 27.2337 22.0082 27.6297 22.0522L27.5637 22.4702H25.9027L24.9457 20.0172C24.7697 19.5699 24.6084 19.2985 24.4617 19.2032C24.315 19.1005 24.007 19.0492 23.5377 19.0492H23.3177V21.7662C23.523 21.8982 23.8787 21.9972 24.3847 22.0632C24.3554 22.2392 24.337 22.3749 24.3297 22.4702H21.2827L21.3377 22.0632C21.763 22.0119 22.1004 21.9129 22.3497 21.7662V15.8262C22.093 15.6795 21.7337 15.5805 21.2717 15.5292L21.3267 15.1332H24.1537ZM24.1427 15.5842C23.8934 15.5842 23.6184 15.6099 23.3177 15.6612V18.5432H23.6587C25.008 18.5432 25.6827 18.0445 25.6827 17.0472C25.6827 16.0719 25.1694 15.5842 24.1427 15.5842ZM29.1644 19.7972V19.8522C29.1644 20.7469 29.278 21.3335 29.5054 21.6122C29.718 21.8762 30.0554 22.0082 30.5174 22.0082C30.7594 22.0082 30.9977 21.9642 31.2324 21.8762C31.467 21.7882 31.643 21.7002 31.7604 21.6122L31.9254 21.4912L32.2004 21.8212C32.149 21.8725 32.0757 21.9385 31.9804 22.0192C31.885 22.0999 31.687 22.2099 31.3864 22.3492C31.0857 22.4812 30.7814 22.5472 30.4734 22.5472C29.6374 22.5472 29.0397 22.3235 28.6804 21.8762C28.3284 21.4215 28.1524 20.7689 28.1524 19.9182C28.1524 19.0602 28.3467 18.4002 28.7354 17.9382C29.1314 17.4689 29.696 17.2342 30.4294 17.2342C31.17 17.2342 31.687 17.4249 31.9804 17.8062C32.2737 18.1875 32.4314 18.7522 32.4534 19.5002L32.2224 19.7972H29.1644ZM30.4074 17.6742C29.6007 17.6742 29.1864 18.2462 29.1644 19.3902L31.4634 19.3132C31.4634 18.7339 31.3864 18.3159 31.2324 18.0592C31.0857 17.8025 30.8107 17.6742 30.4074 17.6742ZM35.6905 17.2342C36.1965 17.2342 36.6035 17.3442 36.9115 17.5642C37.2268 17.7769 37.3845 18.0555 37.3845 18.4002C37.3845 18.5689 37.3258 18.7192 37.2085 18.8512C37.0985 18.9832 36.9665 19.0492 36.8125 19.0492C36.6658 19.0492 36.5411 19.0125 36.4385 18.9392C36.3358 18.8659 36.2661 18.7705 36.2295 18.6532C36.3248 18.4992 36.3725 18.3489 36.3725 18.2022C36.3725 18.0482 36.3101 17.9162 36.1855 17.8062C36.0608 17.6889 35.8775 17.6302 35.6355 17.6302C35.4008 17.6302 35.1881 17.6889 34.9975 17.8062C34.8141 17.9235 34.6748 18.0922 34.5795 18.3122C34.4255 18.6935 34.3485 19.1335 34.3485 19.6322C34.3485 20.1309 34.3631 20.4939 34.3925 20.7212C34.4218 20.9485 34.4805 21.1685 34.5685 21.3812C34.7445 21.7992 35.1221 22.0082 35.7015 22.0082C35.9435 22.0082 36.1818 21.9642 36.4165 21.8762C36.6511 21.7882 36.8235 21.7002 36.9335 21.6122L37.0985 21.4912L37.3845 21.8212C37.3331 21.8725 37.2598 21.9385 37.1645 22.0192C37.0691 22.0999 36.8675 22.2099 36.5595 22.3492C36.2588 22.4812 35.9545 22.5472 35.6465 22.5472C34.8178 22.5472 34.2238 22.3235 33.8645 21.8762C33.5051 21.4215 33.3255 20.7469 33.3255 19.8522C33.3475 18.1069 34.1358 17.2342 35.6905 17.2342ZM39.5999 18.2462C39.3946 18.5762 39.2919 19.1225 39.2919 19.8852C39.2919 20.6479 39.3946 21.1979 39.5999 21.5352C39.8126 21.8725 40.1573 22.0412 40.6339 22.0412C41.1106 22.0412 41.4553 21.8725 41.6679 21.5352C41.8879 21.1979 41.9979 20.6479 41.9979 19.8852C41.9979 19.1225 41.8916 18.5762 41.6789 18.2462C41.4663 17.9089 41.1179 17.7402 40.6339 17.7402C40.1573 17.7402 39.8126 17.9089 39.5999 18.2462ZM38.8849 21.8652C38.4963 21.4105 38.3019 20.7505 38.3019 19.8852C38.3019 19.0199 38.4963 18.3635 38.8849 17.9162C39.2809 17.4615 39.8639 17.2342 40.6339 17.2342C41.4039 17.2342 41.9833 17.4615 42.3719 17.9162C42.7679 18.3635 42.9659 19.0199 42.9659 19.8852C42.9659 20.7505 42.7679 21.4105 42.3719 21.8652C41.9833 22.3199 41.4039 22.5472 40.6339 22.5472C39.8639 22.5472 39.2809 22.3199 38.8849 21.8652ZM44.8167 18.6532C44.8167 18.3819 44.7617 18.1985 44.6517 18.1032C44.5417 18.0005 44.34 17.9419 44.0467 17.9272L44.0797 17.6082C44.197 17.5862 44.648 17.4615 45.4327 17.2342L45.6307 17.3332L45.7077 17.9052C46.0964 17.4579 46.5437 17.2342 47.0497 17.2342C47.7244 17.2342 48.2084 17.4615 48.5017 17.9162C49.0004 17.4615 49.4917 17.2342 49.9757 17.2342C50.467 17.2342 50.8704 17.3699 51.1857 17.6412C51.5084 17.9052 51.6697 18.3195 51.6697 18.8842V21.7882C51.8457 21.9202 52.1024 22.0229 52.4397 22.0962L52.3957 22.4702H49.9867L50.0087 22.0962C50.2874 22.0522 50.5294 21.9495 50.7347 21.7882V18.8512C50.7347 18.1252 50.445 17.7622 49.8657 17.7622C49.631 17.7622 49.411 17.8355 49.2057 17.9822C49.0004 18.1289 48.8464 18.3012 48.7437 18.4992V21.7882C48.905 21.9202 49.1617 22.0229 49.5137 22.0962L49.4697 22.4702H47.0497L47.0827 22.0962C47.3614 22.0522 47.6034 21.9495 47.8087 21.7882V18.8512C47.8087 18.1252 47.519 17.7622 46.9397 17.7622C46.683 17.7622 46.441 17.8539 46.2137 18.0372C45.9864 18.2132 45.836 18.4075 45.7627 18.6202V21.7882C45.9314 21.9202 46.1844 22.0229 46.5217 22.0962L46.4777 22.4702H44.0467L44.0907 22.0742C44.3987 22.0229 44.6407 21.9275 44.8167 21.7882V18.6532ZM53.969 18.6532C53.969 18.3819 53.914 18.1985 53.804 18.1032C53.694 18.0005 53.4924 17.9419 53.199 17.9272L53.232 17.6082C53.3494 17.5862 53.8004 17.4615 54.585 17.2342L54.783 17.3332L54.86 17.9052C55.2487 17.4579 55.696 17.2342 56.202 17.2342C56.8767 17.2342 57.3607 17.4615 57.654 17.9162C58.1527 17.4615 58.644 17.2342 59.128 17.2342C59.6194 17.2342 60.0227 17.3699 60.338 17.6412C60.6607 17.9052 60.822 18.3195 60.822 18.8842V21.7882C60.998 21.9202 61.2547 22.0229 61.592 22.0962L61.548 22.4702H59.139L59.161 22.0962C59.4397 22.0522 59.6817 21.9495 59.887 21.7882V18.8512C59.887 18.1252 59.5974 17.7622 59.018 17.7622C58.7834 17.7622 58.5634 17.8355 58.358 17.9822C58.1527 18.1289 57.9987 18.3012 57.896 18.4992V21.7882C58.0574 21.9202 58.314 22.0229 58.666 22.0962L58.622 22.4702H56.202L56.235 22.0962C56.5137 22.0522 56.7557 21.9495 56.961 21.7882V18.8512C56.961 18.1252 56.6714 17.7622 56.092 17.7622C55.8354 17.7622 55.5934 17.8539 55.366 18.0372C55.1387 18.2132 54.9884 18.4075 54.915 18.6202V21.7882C55.0837 21.9202 55.3367 22.0229 55.674 22.0962L55.63 22.4702H53.199L53.243 22.0742C53.551 22.0229 53.793 21.9275 53.969 21.7882V18.6532ZM63.5394 19.7972V19.8522C63.5394 20.7469 63.653 21.3335 63.8804 21.6122C64.093 21.8762 64.4304 22.0082 64.8924 22.0082C65.1344 22.0082 65.3727 21.9642 65.6074 21.8762C65.842 21.7882 66.018 21.7002 66.1354 21.6122L66.3004 21.4912L66.5754 21.8212C66.524 21.8725 66.4507 21.9385 66.3554 22.0192C66.26 22.0999 66.062 22.2099 65.7614 22.3492C65.4607 22.4812 65.1564 22.5472 64.8484 22.5472C64.0124 22.5472 63.4147 22.3235 63.0554 21.8762C62.7034 21.4215 62.5274 20.7689 62.5274 19.9182C62.5274 19.0602 62.7217 18.4002 63.1104 17.9382C63.5064 17.4689 64.071 17.2342 64.8044 17.2342C65.545 17.2342 66.062 17.4249 66.3554 17.8062C66.6487 18.1875 66.8064 18.7522 66.8284 19.5002L66.5974 19.7972H63.5394ZM64.7824 17.6742C63.9757 17.6742 63.5614 18.2462 63.5394 19.3902L65.8384 19.3132C65.8384 18.7339 65.7614 18.3159 65.6074 18.0592C65.4607 17.8025 65.1857 17.6742 64.7824 17.6742ZM71.4515 18.8512C71.4515 18.1252 71.1361 17.7622 70.5055 17.7622C70.2561 17.7622 70.0178 17.8502 69.7905 18.0262C69.5631 18.1949 69.3908 18.4149 69.2735 18.6862V21.7882C69.4495 21.9275 69.7061 22.0302 70.0435 22.0962L69.9995 22.4702H67.5685L67.6125 22.0742C67.9278 22.0229 68.1698 21.9275 68.3385 21.7882V18.6532C68.3385 18.3819 68.2798 18.1985 68.1625 18.1032C68.0525 18.0005 67.8545 17.9419 67.5685 17.9272L67.6015 17.6082C67.6968 17.5935 68.1441 17.4689 68.9435 17.2342L69.1415 17.3332L69.2405 18.0152C69.4091 17.7732 69.6218 17.5825 69.8785 17.4432C70.1425 17.3039 70.4138 17.2342 70.6925 17.2342C71.2278 17.2342 71.6421 17.3699 71.9355 17.6412C72.2361 17.9052 72.3865 18.2755 72.3865 18.7522V21.7882C72.5478 21.9202 72.8045 22.0229 73.1565 22.0962L73.1125 22.4702H70.6925L70.7255 22.0962C71.0041 22.0522 71.2461 21.9495 71.4515 21.7882V18.8512ZM75.9903 22.5472C74.6483 22.5472 73.9773 21.7002 73.9773 20.0062C73.9773 19.1042 74.1899 18.4185 74.6153 17.9492C75.0406 17.4725 75.6566 17.2342 76.4633 17.2342C76.7786 17.2342 77.0903 17.2965 77.3983 17.4212V16.2332C77.3983 15.9619 77.3433 15.7785 77.2333 15.6832C77.1233 15.5805 76.9253 15.5219 76.6393 15.5072L76.6613 15.1882C76.9106 15.1442 77.3983 15.0159 78.1243 14.8032L78.3443 14.9132V21.7992C78.5129 21.9312 78.7659 22.0302 79.1033 22.0962L79.0703 22.4702H77.4863L77.3983 21.8212C77.0903 22.3052 76.6209 22.5472 75.9903 22.5472ZM76.0893 22.0742C76.9619 22.0742 77.3983 21.3849 77.3983 20.0062V17.9162C77.1196 17.7695 76.7969 17.6962 76.4303 17.6962C75.9609 17.6962 75.5943 17.8979 75.3303 18.3012C75.0736 18.7045 74.9453 19.2692 74.9453 19.9952C74.9453 20.7139 75.0369 21.2419 75.2203 21.5792C75.4109 21.9092 75.7006 22.0742 76.0893 22.0742ZM81.1458 19.7972V19.8522C81.1458 20.7469 81.2595 21.3335 81.4868 21.6122C81.6995 21.8762 82.0368 22.0082 82.4988 22.0082C82.7408 22.0082 82.9792 21.9642 83.2138 21.8762C83.4485 21.7882 83.6245 21.7002 83.7418 21.6122L83.9068 21.4912L84.1818 21.8212C84.1305 21.8725 84.0572 21.9385 83.9618 22.0192C83.8665 22.0999 83.6685 22.2099 83.3678 22.3492C83.0672 22.4812 82.7628 22.5472 82.4548 22.5472C81.6188 22.5472 81.0212 22.3235 80.6618 21.8762C80.3098 21.4215 80.1338 20.7689 80.1338 19.9182C80.1338 19.0602 80.3282 18.4002 80.7168 17.9382C81.1128 17.4689 81.6775 17.2342 82.4108 17.2342C83.1515 17.2342 83.6685 17.4249 83.9618 17.8062C84.2552 18.1875 84.4128 18.7522 84.4348 19.5002L84.2038 19.7972H81.1458ZM82.3888 17.6742C81.5822 17.6742 81.1678 18.2462 81.1458 19.3902L83.4448 19.3132C83.4448 18.7339 83.3678 18.3159 83.2138 18.0592C83.0672 17.8025 82.7922 17.6742 82.3888 17.6742ZM87.4629 22.5472C86.1209 22.5472 85.4499 21.7002 85.4499 20.0062C85.4499 19.1042 85.6626 18.4185 86.0879 17.9492C86.5133 17.4725 87.1293 17.2342 87.9359 17.2342C88.2513 17.2342 88.5629 17.2965 88.8709 17.4212V16.2332C88.8709 15.9619 88.8159 15.7785 88.7059 15.6832C88.5959 15.5805 88.3979 15.5219 88.1119 15.5072L88.1339 15.1882C88.3833 15.1442 88.8709 15.0159 89.5969 14.8032L89.8169 14.9132V21.7992C89.9856 21.9312 90.2386 22.0302 90.5759 22.0962L90.5429 22.4702H88.9589L88.8709 21.8212C88.5629 22.3052 88.0936 22.5472 87.4629 22.5472ZM87.5619 22.0742C88.4346 22.0742 88.8709 21.3849 88.8709 20.0062V17.9162C88.5923 17.7695 88.2696 17.6962 87.9029 17.6962C87.4336 17.6962 87.0669 17.8979 86.8029 18.3012C86.5463 18.7045 86.4179 19.2692 86.4179 19.9952C86.4179 20.7139 86.5096 21.2419 86.6929 21.5792C86.8836 21.9092 87.1733 22.0742 87.5619 22.0742ZM39.9437 28.9802L40.0757 30.3002H41.2197V30.8832H40.0757V34.7882C40.2444 34.9129 40.5414 35.0155 40.9667 35.0962L40.9337 35.4702H38.3707L38.4147 35.0742C38.7227 35.0229 38.9647 34.9275 39.1407 34.7882V30.8832H38.3267L38.2717 30.4982C38.653 30.4615 38.9427 30.3955 39.1407 30.3002V29.7062C39.1407 29.0975 39.2727 28.6062 39.5367 28.2322C39.808 27.8582 40.2224 27.6712 40.7797 27.6712C41.337 27.6712 41.7587 27.7629 42.0447 27.9462V29.0022H41.4397C41.3517 28.3862 41.1024 28.0782 40.6917 28.0782C40.4644 28.0782 40.281 28.1589 40.1417 28.3202C40.0097 28.4742 39.9437 28.6942 39.9437 28.9802ZM43.1449 31.2462C42.9395 31.5762 42.8369 32.1225 42.8369 32.8852C42.8369 33.6479 42.9395 34.1979 43.1449 34.5352C43.3575 34.8725 43.7022 35.0412 44.1789 35.0412C44.6555 35.0412 45.0002 34.8725 45.2129 34.5352C45.4329 34.1979 45.5429 33.6479 45.5429 32.8852C45.5429 32.1225 45.4365 31.5762 45.2239 31.2462C45.0112 30.9089 44.6629 30.7402 44.1789 30.7402C43.7022 30.7402 43.3575 30.9089 43.1449 31.2462ZM42.4299 34.8652C42.0412 34.4105 41.8469 33.7505 41.8469 32.8852C41.8469 32.0199 42.0412 31.3635 42.4299 30.9162C42.8259 30.4615 43.4089 30.2342 44.1789 30.2342C44.9489 30.2342 45.5282 30.4615 45.9169 30.9162C46.3129 31.3635 46.5109 32.0199 46.5109 32.8852C46.5109 33.7505 46.3129 34.4105 45.9169 34.8652C45.5282 35.3199 44.9489 35.5472 44.1789 35.5472C43.4089 35.5472 42.8259 35.3199 42.4299 34.8652ZM50.6166 30.2342C50.8806 30.2342 51.1079 30.3112 51.2986 30.4652C51.4966 30.6192 51.5956 30.8135 51.5956 31.0482C51.5956 31.2829 51.5406 31.4699 51.4306 31.6092C51.3279 31.7485 51.1996 31.8182 51.0456 31.8182C50.8989 31.8182 50.7706 31.7889 50.6606 31.7302C50.5506 31.6642 50.4809 31.5799 50.4516 31.4772C50.5249 31.4039 50.5616 31.3012 50.5616 31.1692C50.5616 30.9492 50.4589 30.8392 50.2536 30.8392C50.0483 30.8392 49.8393 30.9895 49.6266 31.2902C49.4213 31.5835 49.3186 31.8989 49.3186 32.2362V34.7882C49.5166 34.9202 49.8063 35.0229 50.1876 35.0962L50.1436 35.4702H47.6136L47.6576 35.0742C47.9583 35.0229 48.2003 34.9275 48.3836 34.7882V31.6532C48.3836 31.3819 48.3249 31.1985 48.2076 31.1032C48.0976 31.0005 47.8996 30.9419 47.6136 30.9272L47.6466 30.6082C47.7419 30.5935 48.1893 30.4689 48.9886 30.2342L49.1866 30.3332L49.2966 31.1032C49.6853 30.5239 50.1253 30.2342 50.6166 30.2342ZM55.1133 29.2332C55.1133 28.9619 55.0546 28.7785 54.9373 28.6832C54.8273 28.5805 54.6293 28.5219 54.3433 28.5072L54.3763 28.1772C54.6403 28.1332 55.128 28.0085 55.8393 27.8032L56.0483 27.9132V32.4672L57.5553 30.9492C57.746 30.7439 57.867 30.5385 57.9183 30.3332H59.3813L59.4143 30.6632C58.9083 30.6852 58.505 30.8429 58.2043 31.1362L57.1923 32.1482L58.8423 34.7772C59.1063 34.9239 59.4436 35.0265 59.8543 35.0852L59.8103 35.4702H58.2373L56.5543 32.7862L56.0483 33.2812V34.7882C56.2316 34.9275 56.4883 35.0265 56.8183 35.0852L56.7743 35.4702H54.3433L54.3873 35.0632C54.6953 35.0192 54.9373 34.9275 55.1133 34.7882V29.2332ZM60.9918 31.6312C60.9918 31.3599 60.9332 31.1765 60.8158 31.0812C60.7058 30.9785 60.5078 30.9199 60.2218 30.9052L60.2548 30.5862C60.5335 30.5349 61.0175 30.4065 61.7068 30.2012L61.9268 30.3222V34.7992C62.1102 34.9312 62.3668 35.0302 62.6968 35.0962L62.6528 35.4702H60.2218L60.2658 35.0742C60.5665 35.0229 60.8085 34.9312 60.9918 34.7992V31.6312ZM61.3988 28.2542C61.7875 28.2542 61.9818 28.4669 61.9818 28.8922C61.9818 29.3175 61.7875 29.5302 61.3988 29.5302C61.0175 29.5302 60.8268 29.3175 60.8268 28.8922C60.8268 28.4669 61.0175 28.2542 61.3988 28.2542ZM65.5274 35.5472C64.1854 35.5472 63.5144 34.7002 63.5144 33.0062C63.5144 32.1042 63.727 31.4185 64.1524 30.9492C64.5777 30.4725 65.1937 30.2342 66.0004 30.2342C66.3157 30.2342 66.6274 30.2965 66.9354 30.4212V29.2332C66.9354 28.9619 66.8804 28.7785 66.7704 28.6832C66.6604 28.5805 66.4624 28.5219 66.1764 28.5072L66.1984 28.1882C66.4477 28.1442 66.9354 28.0159 67.6614 27.8032L67.8814 27.9132V34.7992C68.05 34.9312 68.303 35.0302 68.6404 35.0962L68.6074 35.4702H67.0234L66.9354 34.8212C66.6274 35.3052 66.158 35.5472 65.5274 35.5472ZM65.6264 35.0742C66.499 35.0742 66.9354 34.3849 66.9354 33.0062V30.9162C66.6567 30.7695 66.334 30.6962 65.9674 30.6962C65.498 30.6962 65.1314 30.8979 64.8674 31.3012C64.6107 31.7045 64.4824 32.2692 64.4824 32.9952C64.4824 33.7139 64.574 34.2419 64.7574 34.5792C64.948 34.9092 65.2377 35.0742 65.6264 35.0742ZM72.3329 31.8512C72.3036 31.4625 72.2193 31.1729 72.0799 30.9822C71.9406 30.7842 71.7133 30.6852 71.3979 30.6852C71.0826 30.6852 70.8406 30.7512 70.6719 30.8832C70.5033 31.0152 70.4189 31.1949 70.4189 31.4222C70.4189 31.6495 70.5143 31.8365 70.7049 31.9832C70.8956 32.1299 71.1266 32.2509 71.3979 32.3462C71.6693 32.4342 71.9406 32.5332 72.2119 32.6432C72.4833 32.7459 72.7143 32.9109 72.9049 33.1382C73.0956 33.3582 73.1909 33.6369 73.1909 33.9742C73.1909 34.4655 73.0186 34.8505 72.6739 35.1292C72.3293 35.4005 71.8453 35.5362 71.2219 35.5362C70.9653 35.5362 70.6683 35.4959 70.3309 35.4152C70.0009 35.3272 69.7516 35.2282 69.5829 35.1182V33.7652L70.1659 33.6882C70.2099 34.2235 70.3089 34.6379 70.4629 34.9312C70.6976 35.0045 70.9726 35.0412 71.2879 35.0412C71.6033 35.0412 71.8563 34.9605 72.0469 34.7992C72.2376 34.6379 72.3329 34.4435 72.3329 34.2162C72.3329 33.9815 72.2376 33.7945 72.0469 33.6552C71.8636 33.5159 71.6363 33.4059 71.3649 33.3252C71.1009 33.2372 70.8333 33.1419 70.5619 33.0392C70.2906 32.9292 70.0596 32.7605 69.8689 32.5332C69.6856 32.2985 69.5939 31.9832 69.5939 31.5872C69.5939 31.1912 69.7553 30.8685 70.0779 30.6192C70.4079 30.3699 70.8773 30.2452 71.4859 30.2452C72.1019 30.2452 72.6079 30.3405 73.0039 30.5312L72.9049 31.8512H72.3329Z" fill="#767676"/>
</g>
<defs>
<clipPath id="clip0">
<rect width="111" height="63" fill="white" transform="translate(0 0.900391)"/>
</clipPath>
</defs>
</svg>
